{
	"asset":{
		"generator":"Khronos glTF Blender I/O v3.6.28",
		"version":"2.0"
	},
	"scene":0,
	"scenes":[
		{
			"name":"Scene",
			"nodes":[
				2
			]
		}
	],
	"nodes":[
		{
			"mesh":0,
			"name":"logo3d_uv.001"
		},
		{
			"children":[
				0
			],
			"name":"logo3d_uv"
		},
		{
			"children":[
				1
			],
			"name":"root",
			"scale":[
				169.990234375,
				169.990234375,
				169.990234375
			],
			"translation":[
				-1.0302886962890625,
				40,
				-3.078125
			]
		}
	],
	"materials":[
		{
			"name":"logo_mat",
			"normalTexture":{
				"index":0
			},
			"occlusionTexture":{
				"index":1
			},
			"pbrMetallicRoughness":{
				"baseColorTexture":{
					"index":2
				},
				"metallicRoughnessTexture":{
					"index":1
				}
			}
		}
	],
	"meshes":[
		{
			"name":"logo3d_uv",
			"primitives":[
				{
					"attributes":{
						"POSITION":0,
						"NORMAL":1,
						"TEXCOORD_0":2
					},
					"indices":3,
					"material":0
				}
			]
		}
	],
	"textures":[
		{
			"sampler":0,
			"source":0
		},
		{
			"sampler":0,
			"source":1
		},
		{
			"sampler":0,
			"source":2
		}
	],
	"images":[
		{
			"bufferView":4,
			"mimeType":"image/png",
			"name":"logo_mat_normal"
		},
		{
			"bufferView":5,
			"mimeType":"image/png",
			"name":"logo_mat_occlusionRoughnessMetallic"
		},
		{
			"bufferView":6,
			"mimeType":"image/png",
			"name":"logo_mat_baseColor"
		}
	],
	"accessors":[
		{
			"bufferView":0,
			"componentType":5126,
			"count":780,
			"max":[
				0.8834400773048401,
				0.7646924257278442,
				0.2534153163433075
			],
			"min":[
				-0.8713183403015137,
				-1.2353076934814453,
				-0.21720001101493835
			],
			"type":"VEC3"
		},
		{
			"bufferView":1,
			"componentType":5126,
			"count":780,
			"type":"VEC3"
		},
		{
			"bufferView":2,
			"componentType":5126,
			"count":780,
			"type":"VEC2"
		},
		{
			"bufferView":3,
			"componentType":5123,
			"count":1560,
			"type":"SCALAR"
		}
	],
	"bufferViews":[
		{
			"buffer":0,
			"byteLength":9360,
			"byteOffset":0,
			"target":34962
		},
		{
			"buffer":0,
			"byteLength":9360,
			"byteOffset":9360,
			"target":34962
		},
		{
			"buffer":0,
			"byteLength":6240,
			"byteOffset":18720,
			"target":34962
		},
		{
			"buffer":0,
			"byteLength":3120,
			"byteOffset":24960,
			"target":34963
		},
		{
			"buffer":0,
			"byteLength":595487,
			"byteOffset":28080
		},
		{
			"buffer":0,
			"byteLength":663768,
			"byteOffset":623568
		},
		{
			"buffer":0,
			"byteLength":23083,
			"byteOffset":1287336
		}
	],
	"samplers":[
		{
			"magFilter":9729,
			"minFilter":9987
		}
	],
	"buffers":[
		{
			"byteLength":1310420,
			"uri":"data:application/octet-stream;base64,"
		}
	]
}
